<?xml version="1.0" encoding="UTF-8" standalone="no"?>
<!DOCTYPE svg PUBLIC "-//W3C//DTD SVG 1.1//EN" "http://www.w3.org/Graphics/SVG/1.1/DTD/svg11.dtd">
<!-- Created with Vectornator (http://vectornator.io/) -->
<svg height="100%" stroke-miterlimit="10" style="fill-rule:nonzero;clip-rule:evenodd;stroke-linecap:round;stroke-linejoin:round;" version="1.1" viewBox="0 0 512 512" width="100%" xml:space="preserve" xmlns="http://www.w3.org/2000/svg" xmlns:xlink="http://www.w3.org/1999/xlink">
<defs>
<linearGradient gradientTransform="matrix(-0.00376178 0.999993 -0.999993 -0.00376178 511.487 -1.15435)" gradientUnits="userSpaceOnUse" id="LinearGradient" x1="-1.618" x2="514.255" y1="254.206" y2="254.206">
<stop offset="0.0227792" stop-color="#a8c9ec"/>
<stop offset="0.992153" stop-color="#64737d"/>
</linearGradient>
<clipPath id="TextBounds">
<rect height="524" transform="matrix(1 -0 -0 1 -22.3 8.09)" width="469.256" x="22.3" y="-8.09"/>
</clipPath>
<clipPath id="TextBounds_2">
<rect height="371" transform="matrix(1 -0 -0 1 -102.859 -63.31)" width="307.502" x="102.859" y="63.31"/>
</clipPath>
<clipPath id="TextBounds_3">
<rect height="524" transform="matrix(1 -0 -0 1 -22.1362 6)" width="467.728" x="22.1362" y="-6"/>
</clipPath>
<clipPath id="TextBounds_4">
<rect height="524" transform="matrix(1 -0 -0 1 -22.1362 6)" width="467.728" x="22.1362" y="-6"/>
</clipPath>
<clipPath id="TextBounds_5">
<rect height="343.197" transform="matrix(1 -0 -0 1 -66.4406 -100.77)" width="387.599" x="66.4406" y="100.77"/>
</clipPath>
<clipPath id="TextBounds_6">
<rect height="365" transform="matrix(1 -0 -0 1 -76.0901 -75.3427)" width="361.227" x="76.0901" y="75.3427"/>
</clipPath>
<clipPath id="TextBounds_7">
<rect height="357.378" transform="matrix(1 -0 -0 1 -70.5255 -77.6785)" width="393.12" x="70.5255" y="77.6785"/>
</clipPath>
<clipPath id="TextBounds_8">
<rect height="299" transform="matrix(1 -0 -0 1 -120.486 -106.89)" width="266.968" x="120.486" y="106.89"/>
</clipPath>
<clipPath id="TextBounds_9">
<rect height="299" transform="matrix(1 -0 -0 1 -143.085 -106)" width="225.83" x="143.085" y="106"/>
</clipPath>
<text clip-path="url(#TextBounds_9)" font-family="Helvetica-Bold" font-size="250" id="Fill" text-anchor="middle" transform="matrix(1 0 0 1 143.085 106)" x="0" y="0">
<tspan textLength="225.83" x="112.915" y="238">􀄩</tspan>
</text>
<clipPath id="TextBounds_10">
<rect height="368.26" transform="matrix(1 -0 -0 1 -62.7618 -69.0952)" width="381.14" x="62.7618" y="69.0952"/>
</clipPath>
<clipPath id="TextBounds_11">
<rect height="388" transform="matrix(1 -0 -0 1 -79.1781 -61.5)" width="353.644" x="79.1781" y="61.5"/>
</clipPath>
<clipPath id="TextBounds_12">
<rect height="388" transform="matrix(1 -0 -0 1 -72.8701 -61.5)" width="366.26" x="72.8701" y="61.5"/>
</clipPath>
<clipPath id="TextBounds_13">
<rect height="564" transform="matrix(1 -0 -0 1 25.4694 31.53)" width="547.321" x="-25.4694" y="-31.53"/>
</clipPath>
<clipPath id="TextBounds_14">
<rect height="371" transform="matrix(1 -0 -0 1 -48.3621 -70.5)" width="415.276" x="48.3621" y="70.5"/>
</clipPath>
<clipPath id="TextBounds_15">
<rect height="371" transform="matrix(1 -0 -0 1 -74.3215 -70.5)" width="363.357" x="74.3215" y="70.5"/>
</clipPath>
<clipPath id="TextBounds_16">
<rect height="564" transform="matrix(1 -0 -0 1 14.9209 31.26)" width="534.342" x="-14.9209" y="-31.26"/>
</clipPath>
<clipPath id="TextBounds_17">
<rect height="554" transform="matrix(1 -0 -0 1 53.9754 25.98)" width="612.471" x="-53.9754" y="-25.98"/>
</clipPath>
<text clip-path="url(#TextBounds_17)" font-family="Helvetica-Bold" font-size="463" id="Fill_2" text-anchor="middle" transform="matrix(1 0 0 1 -53.9754 -25.98)" x="0" y="0">
<tspan textLength="600.792" x="306.235" y="441">􀦎</tspan>
</text>
<clipPath id="TextBounds_18">
<rect height="564" transform="matrix(1 -0 -0 1 -4.70656 31.3)" width="495.047" x="4.70656" y="-31.3"/>
</clipPath>
<clipPath id="TextBounds_19">
<rect height="564" transform="matrix(1 -0 -0 1 30.7031 26)" width="573.406" x="-30.7031" y="-26"/>
</clipPath>
<clipPath id="TextBounds_20">
<rect height="564" transform="matrix(1 -0 -0 1 31.3518 44.21)" width="567.184" x="-31.3518" y="-44.21"/>
</clipPath>
<clipPath id="TextBounds_21">
<rect height="564" transform="matrix(1 -0 -0 1 12.0496 34.31)" width="525.699" x="-12.0496" y="-34.31"/>
</clipPath>
<text clip-path="url(#TextBounds_21)" font-family="Helvetica-Bold" font-size="472" id="Fill_3" text-anchor="middle" transform="matrix(1 0 0 1 -12.0496 -34.31)" x="0" y="0">
<tspan textLength="525.699" x="262.85" y="449">􀣋</tspan>
</text>
<clipPath id="TextBounds_22">
<rect height="564" transform="matrix(1 -0 -0 1 20.4473 26)" width="552.895" x="-20.4473" y="-26"/>
</clipPath>
<text clip-path="url(#TextBounds_22)" font-family="Helvetica-Bold" font-size="472" id="Fill_4" text-anchor="middle" transform="matrix(1 0 0 1 -20.4473 -26)" x="0" y="0">
<tspan textLength="552.895" x="276.447" y="449">􀌤</tspan>
</text>
<clipPath id="TextBounds_23">
<rect height="564" transform="matrix(1 -0 -0 1 31.9707 26)" width="575.941" x="-31.9707" y="-26"/>
</clipPath>
<text clip-path="url(#TextBounds_23)" font-family="Arial-Black" font-size="472" id="Fill_5" text-anchor="start" transform="matrix(1 0 0 1 -31.9707 -26)" x="0" y="0">
<tspan textLength="575.941" x="0" y="449">􀬲</tspan>
</text>
<clipPath id="TextBounds_24">
<rect height="564" transform="matrix(1 -0 -0 1 -7.2666 26)" width="497.467" x="7.2666" y="-26"/>
</clipPath>
<text clip-path="url(#TextBounds_24)" font-family="Helvetica-Bold" font-size="472" id="Fill_6" text-anchor="middle" transform="matrix(1 0 0 1 7.2666 -26)" x="0" y="0">
<tspan textLength="497.467" x="248.733" y="449">􀝖</tspan>
</text>
</defs>
<clipPath id="ArtboardFrame">
<rect height="512" width="512" x="0" y="0"/>
</clipPath>
<g clip-path="url(#ArtboardFrame)" id="Слой-1">
<path d="M516.055-2.75518L514.114 513.114L-3.41824 511.167L-1.47764-4.70203L516.055-2.75518Z" fill="url(#LinearGradient)" fill-rule="nonzero" opacity="0" stroke="none"/>
<text clip-path="url(#TextBounds)" fill="#3390ec" font-family="Helvetica-Bold" font-size="438" opacity="0" stroke="none" text-anchor="middle" transform="matrix(1 0 0 1 22.3 -8.09)" x="0" y="0">
<tspan textLength="467.728" x="234.628" y="417">􀚂</tspan>
</text>
<text clip-path="url(#TextBounds_2)" fill="#ffffff" font-family="Helvetica-Bold" font-size="310" opacity="0" stroke="none" text-anchor="middle" transform="matrix(1 0 0 1 102.859 63.31)" x="0" y="0">
<tspan textLength="307.502" x="153.751" y="295">􀉪</tspan>
</text>
<text clip-path="url(#TextBounds_3)" fill="#3390ec" font-family="Helvetica-Bold" font-size="438" opacity="0" stroke="none" text-anchor="middle" transform="matrix(1 0 0 1 22.1362 -6)" x="0" y="0">
<tspan textLength="467.728" x="233.864" y="417">􀁍</tspan>
</text>
<path d="M133.046 270.656C133.046 206.127 183.624 153.816 246.016 153.816C308.407 153.816 358.986 206.127 358.986 270.656C358.986 335.185 308.407 387.496 246.016 387.496C183.624 387.496 133.046 335.185 133.046 270.656Z" fill="#3390ec" fill-rule="nonzero" opacity="0" stroke="none"/>
<text clip-path="url(#TextBounds_4)" fill="#3390ec" font-family="Helvetica-Bold" font-size="438" opacity="0" stroke="none" text-anchor="middle" transform="matrix(1 0 0 1 22.1362 -6)" x="0" y="0">
<tspan textLength="467.728" x="233.864" y="417">􀁷</tspan>
</text>
<text clip-path="url(#TextBounds_5)" fill="#ffffff" font-family="Helvetica-Bold" font-size="250" opacity="0" stroke="none" text-anchor="middle" transform="matrix(1 0 0 1 66.4406 100.77)" x="0" y="0">
<tspan textLength="301.025" x="193.8" y="238">􀎝</tspan>
</text>
<path d="M-27.0313-28.2107L539.949-22.3712L534.227 533.149L-32.7527 527.31L-27.0313-28.2107Z" fill="#ffffff" fill-rule="nonzero" opacity="0" stroke="none"/>
<text clip-path="url(#TextBounds_6)" fill="#ffffff" font-family="Helvetica-Bold" font-size="305" opacity="0" stroke="none" text-anchor="middle" transform="matrix(1 0 0 1 76.0901 75.3427)" x="0" y="0">
<tspan textLength="359.06" x="180.613" y="290">􀍟</tspan>
</text>
<text clip-path="url(#TextBounds_7)" fill="#ffffff" font-family="Helvetica-Bold" font-size="270" opacity="0" stroke="none" text-anchor="middle" transform="matrix(1 0 0 1 70.5255 77.6785)" x="0" y="0">
<tspan textLength="267.891" x="196.56" y="257">􀜖</tspan>
</text>
<text clip-path="url(#TextBounds_8)" fill="#ffffff" font-family="Helvetica-Bold" font-size="250" opacity="0" stroke="none" text-anchor="middle" transform="matrix(1 0 0 1 120.486 106.89)" x="0" y="0">
<tspan textLength="266.968" x="133.484" y="238">􀖘</tspan>
</text>
<g opacity="0">
<use fill="#ffffff" stroke="none" xlink:href="#Fill"/>
<mask height="751.022" id="StrokeMask" maskUnits="userSpaceOnUse" width="706.405" x="-94.2378" y="-114.61">
<rect fill="#ffffff" height="751.022" stroke="none" width="706.405" x="-94.2378" y="-114.61"/>
<use fill="#000000" fill-rule="evenodd" stroke="none" xlink:href="#Fill"/>
</mask>
<use fill="none" mask="url(#StrokeMask)" stroke="#ffffff" stroke-linecap="butt" stroke-linejoin="round" stroke-width="35.68" xlink:href="#Fill"/>
</g>
<g opacity="0">
<path d="M254.504 153.633C254.504 186.226 254.958 218.844 254.504 251.433C254.377 260.512 253.892 269.584 253.764 278.663C253.701 283.092 249.335 291.873 253.764 291.953C258.531 292.039 258.244 283.413 259.294 278.763C260.386 273.924 259.946 268.861 260.094 263.903C260.347 255.412 259.991 246.779 261.774 238.473C263.591 230.006 267.514 221.979 268.474 213.373C268.945 209.146 268.474 204.866 268.474 200.613C268.474 195.933 268.474 181.893 268.474 186.573C268.474 217.82 269.06 249.027 269.264 280.263C269.296 285.209 269.677 290.174 269.264 295.103C268.94 298.959 270.93 306.686 267.064 306.503C262.583 306.291 261.91 298.987 260.614 294.693C256.419 280.799 259.013 261.925 259.084 247.693C259.105 243.423 258.925 239.142 259.234 234.883C259.599 229.847 256.469 217.851 261.104 219.853C266.306 222.1 262.966 231.045 263.424 236.693C263.741 240.61 263.424 244.553 263.424 248.483C263.424 267.823 262.689 287.07 262.194 306.403C262.068 311.336 261.998 316.272 261.784 321.203C261.611 325.18 264.097 335.665 261.034 333.123C256.658 329.491 257.469 322.293 256.374 316.713C255.629 312.919 255.667 309.007 255.544 305.143C254.954 286.618 255.428 267.894 255.904 249.373C256.016 245.023 251.933 236.744 256.264 236.323C260.562 235.905 257.427 244.891 257.654 249.203C258.093 257.535 257.654 265.89 257.654 274.233C257.654 288.925 260.58 313.926 253.854 327.093C252.016 330.691 249.972 335.416 246.044 336.363C241.889 337.365 237.194 334.75 234.034 331.873C230.828 328.954 230.372 324.007 228.294 320.203C226.368 316.677 224.494 313.079 222.034 309.903C214.457 300.123 203.647 292.966 195.134 284.013C192.432 281.172 191.053 274.96 187.154 275.373C182.996 275.813 181.184 281.636 179.924 285.623C178.754 289.324 177.715 294.31 180.234 297.263C182.956 300.454 190.017 303.724 192.444 300.303C194.708 297.11 185.203 296.919 182.454 294.133C179.626 291.266 177.226 287.7 176.174 283.813C175.1 279.849 172.714 273.452 176.324 271.493C179.855 269.576 184.092 274.954 186.234 278.353C188.511 281.968 187.53 286.812 188.584 290.953C189.601 294.95 195.72 300.22 192.434 302.713C189.257 305.123 186.011 297.895 183.364 294.913C180.76 291.98 173.944 287.795 176.824 285.133C179.701 282.473 183.149 289.79 186.014 292.463C192.194 298.229 197.447 304.975 203.884 310.453C207.358 313.409 211.148 315.974 214.694 318.843C217.889 321.428 226.386 323.394 224.104 326.813C221.559 330.623 214.7 326.914 210.454 325.193C199.284 320.666 192.059 307.682 185.324 298.853C182.77 295.506 179.288 292.921 176.844 289.493C174.574 286.309 173.919 276.274 171.284 279.163C168.126 282.624 171.725 288.74 173.624 293.023C175.208 296.597 178.509 299.161 181.344 301.853C190.954 310.978 203.151 316.019 214.344 322.763C217.679 324.772 223.905 333.041 224.124 329.153C224.35 325.142 217.65 324.393 214.384 322.053C211.066 319.676 202.506 311.374 204.374 315.003C206.397 318.933 211.488 320.257 214.904 323.063C221.329 328.34 227.14 333.839 232.664 340.053C235.259 342.973 243.792 347.933 240.074 349.133C235.673 350.553 232.204 344.238 228.574 341.373C221.724 335.966 215.351 329.957 209.194 323.773C206.249 320.815 197.644 316.953 200.924 314.373C204.329 311.695 208.229 319.099 211.444 322.003C214.54 324.8 217.445 327.89 219.744 331.373C223.464 337.009 225.963 348.376 232.514 352.423C235.925 354.53 240.575 356.213 244.314 354.763C247.975 353.342 249.64 348.799 251.174 345.183C254.656 336.971 253.101 327.431 254.734 318.663C255.499 314.552 254.522 306.788 258.704 306.763C262.918 306.738 262.413 314.457 263.114 318.613C264.635 327.632 263.114 336.906 263.114 346.053C263.114 349.94 260.363 354.967 263.114 357.713C265.857 360.452 271.338 359.515 274.744 357.663C278.714 355.504 280.447 350.636 282.994 346.903C287.69 340.02 291.912 332.78 297.154 326.303C299.833 322.993 301.708 314.412 305.394 316.543C309.022 318.641 301.774 324.207 299.074 327.413C296.34 330.659 293.292 334.082 289.334 335.613C275.449 340.981 264.553 328.612 260.574 316.893C257.88 308.96 259.464 300.161 259.464 291.783C259.464 277.094 260.796 262.859 262.854 248.293C263.692 242.361 264.786 236.468 265.674 230.543C266.343 226.074 268.074 212.628 267.524 217.113C265.367 234.696 266.962 243.863 268.424 261.133C270.25 282.705 269.714 306.713 267.764 328.253C267.313 333.236 266.393 338.167 265.704 343.123C265.093 347.52 266.691 352.89 263.864 356.313C261.418 359.274 256.276 360.182 252.644 358.933C248.869 357.635 247.24 353.03 244.904 349.793C242.293 346.175 241.633 336.068 237.844 338.423C234.023 340.798 241.237 346.781 243.424 350.713C245.32 354.122 246.707 358.343 250.044 360.363C253.506 362.459 258.087 362.7 262.074 362.003C270.342 360.558 275.845 353.844 278.094 346.263C279.342 342.055 282.304 336.271 279.224 333.143C276.368 330.242 271.163 334.327 267.184 335.183C258.063 337.145 252.304 340.653 242.824 338.083C234.704 335.881 227.713 330.124 219.444 328.573C215.567 327.846 208.726 324.043 207.634 327.833C206.544 331.614 214.674 331.364 218.064 333.363C221.731 335.525 225.522 337.567 228.784 340.303C239.324 349.144 241.802 359.983 257.414 360.253C270.31 360.476 283.143 354.509 288.944 342.443C292.439 335.172 292.007 326.075 296.714 319.523C304.701 308.405 317.282 306.995 326.864 298.183C329.713 295.562 332.086 292.386 334.004 289.023C336.005 285.514 334.894 275.962 338.504 277.773C342.794 279.925 340.657 287.315 340.104 292.083C339.661 295.898 338.594 300.271 335.614 302.693C332.543 305.188 327.552 303.412 324.004 305.163C315.131 309.541 312.767 316.316 306.074 322.873C297.174 331.591 286.728 337.685 277.944 346.663C275.142 349.527 272.706 352.836 269.444 355.163C266.19 357.484 262.536 361.403 258.664 360.413C254.901 359.45 251.817 354.611 252.164 350.743C252.555 346.379 257.158 343.432 260.444 340.533C266.758 334.961 275.484 332.143 280.874 325.673C288.529 316.485 292.512 305.552 301.774 297.233C307.725 291.887 315.051 288.118 321.324 283.213C324.472 280.751 327.297 277.9 330.344 275.313C333.308 272.796 335.89 266.135 339.354 267.903C343.275 269.904 342.029 276.596 341.394 280.953C340.699 285.718 337.906 289.968 335.524 294.153C329.206 305.252 318.817 312.03 306.474 314.923C302.511 315.851 296.786 319.363 294.324 316.123C291.882 312.909 295.96 307.707 298.854 304.893C301.638 302.186 306.513 303.028 309.844 301.033C313.263 298.985 322.306 294.709 318.704 293.003C314.848 291.176 311.42 297.501 308.134 300.223C301.708 305.546 296.168 311.864 290.474 317.963C287.766 320.863 280.243 323.687 282.594 326.883C285.148 330.356 291.433 326.421 295.314 324.543C306.748 319.008 312.946 304.831 320.634 295.643C323.116 292.677 326.267 290.325 328.824 287.423C331.373 284.531 338.477 281.181 335.924 278.293C333.257 275.277 327.74 280.119 324.704 282.763C314.972 291.239 317.716 306.121 304.894 312.913C301.228 314.855 294.747 319.246 292.744 315.613C290.586 311.699 296.59 307.058 300.264 304.513C303.914 301.984 309.024 302.868 313.224 301.423C316.97 300.134 320.628 298.474 323.974 296.353C327.263 294.268 330.625 292.009 332.974 288.903C335.402 285.692 333.918 278.169 337.934 277.893C341.9 277.62 343.921 284.169 344.034 288.143C344.149 292.226 341.493 296.277 338.534 299.093C335.449 302.028 330.93 305.865 326.924 304.423C323.092 303.043 334.222 300.798 337.784 298.823C341.155 296.953 345.395 295.973 347.714 292.893C350.1 289.724 352.515 285.038 350.884 281.423C349.21 277.715 344.015 275.063 340.024 275.853C335.774 276.694 333.148 281.498 331.134 285.333C327.329 292.577 328.631 302.508 323.084 308.523C317.434 314.65 308.482 316.605 301.564 321.253C296.514 324.645 287.188 333.43 282.524 337.123C273.98 343.888 271.918 344.874 262.144 349.853C258.631 351.642 250.075 358.671 251.494 354.993C253.18 350.623 259.393 349.946 263.174 347.183C266.619 344.665 270.203 342.246 273.154 339.163C281.482 330.463 287.106 319.329 295.474 310.443C303.213 302.224 315.805 294.509 322.434 286.233C324.966 283.071 324.201 276.734 328.044 275.453C331.816 274.196 325.073 282.918 322.734 286.133C317.394 293.471 309.374 298.428 302.964 304.853C292.02 315.823 283.591 331.624 269.074 338.783C265.485 340.553 261.336 340.866 257.394 341.553C253.518 342.228 244.9 346.722 245.664 342.863C246.63 337.985 254.139 337.63 258.604 335.443C273.189 328.299 279.537 329.647 289.374 315.413C298.727 301.877 308.599 289.931 319.004 277.183C321.522 274.097 322.876 269.953 326.024 267.513C329.062 265.158 333.662 261.164 336.794 263.393C340.196 265.815 337.612 271.71 337.784 275.883C338.1 283.56 337.415 292.809 331.914 298.173C327.208 302.762 315.452 305.704 309.694 308.523C298.496 314.004 289.671 322.27 280.804 330.833C269.151 342.086 256.327 353.383 249.514 368.533C247.928 372.059 243.651 377.166 246.534 379.743C249.429 382.331 255.367 378.897 257.424 375.603C259.583 372.145 256.97 367.463 256.744 363.393" fill="#ffffff" fill-rule="nonzero" stroke="none"/>
<path d="M254.469 142.344C248.227 142.355 243.176 147.414 243.188 153.656C243.286 186.191 243.76 218.717 243.312 251.25C243.23 257.244 242.991 263.259 242.812 269.25C242.743 271.561 242.699 273.875 242.656 276.188C242.642 276.977 242.701 277.818 242.562 278.594C241.814 282.791 240.215 286.813 240.719 291.156C241.122 294.635 242.704 297.6 245.031 299.719C245.069 301.624 245.077 303.533 245.125 305.438C245.194 308.222 245.235 311.004 245.469 313.781C245.614 315.505 245.903 317.202 246.156 318.906C245.903 319.769 245.78 320.671 245.438 321.5C244.811 323.015 244.018 324.507 243.219 325.938C243.164 326.035 243.111 326.104 243.062 326.188C242.389 325.849 241.737 325.415 241.156 324.938C241.031 324.835 240.903 324.732 240.781 324.625C240.785 324.631 240.784 324.595 240.781 324.594C239.96 323.07 239.482 321.396 238.875 319.781C237.959 317.344 236.755 315.116 235.5 312.844C233.203 308.686 230.62 304.718 227.5 301.125C222.415 295.269 216.432 290.32 210.594 285.25C207.672 282.713 204.871 280.068 202.125 277.344C202.115 277.333 202.104 277.323 202.094 277.312C201.189 276.056 200.559 274.611 199.719 273.312C198.028 270.699 195.892 268.346 193.031 267C191.422 266.243 189.684 265.842 187.906 265.781C187.736 265.775 187.577 265.874 187.406 265.875C184.02 263.046 179.98 261.134 175.312 262.125C174.094 262.384 173.032 262.784 171.938 263.375C170.853 263.96 169.908 264.664 169.031 265.531C166.904 267.635 166.038 270.115 165.625 272.688C165.325 272.967 164.95 273.168 164.688 273.469C163.68 274.625 162.879 275.949 162.312 277.375C159.798 283.709 162.585 289.859 165.25 295.562C166.084 297.348 166.954 299.061 168.125 300.656C170.213 303.502 172.884 305.781 175.469 308.156C179.45 311.815 183.781 314.999 188.375 317.844C192.607 323.244 197.313 328.187 203.344 331.562C203.416 331.704 203.447 331.864 203.531 332C205.137 334.586 207.978 335.537 210.781 336.25C212.434 337.82 214.208 339.261 215.906 340.781C216.644 342.457 217.427 344.105 218.219 345.75C220.917 351.355 224.138 356.391 229.719 359.5C232.314 360.945 235.153 362.054 238.094 362.531C239.812 362.81 241.552 362.903 243.281 362.688C243.603 362.647 243.9 362.497 244.219 362.438C244.411 362.644 244.545 362.898 244.75 363.094C246.361 364.635 248.33 365.627 250.406 366.375C249.922 367.381 249.482 368.415 248.969 369.406C248.088 371.107 247.048 372.724 246.25 374.469C245.852 375.339 245.644 376.337 245.625 377.344C245.662 376.009 246.377 374.595 246.938 373.5C247.636 372.136 248.443 370.856 249.156 369.5C249.687 368.492 250.154 367.46 250.656 366.438C252.154 366.954 253.682 367.419 255.25 367.594C255.996 367.677 256.75 367.606 257.5 367.625C260.545 367.701 263.563 367.263 266.438 366.281C266.746 366.311 267.033 366.426 267.344 366.438C273.2 366.648 279.184 364.18 283 359.719C284.87 357.533 286.2 355.019 287.656 352.562C287.751 352.458 287.875 352.387 287.969 352.281C290.104 349.857 291.694 347.124 293.031 344.25C294.071 342.64 295.131 341.037 296.188 339.438C297.945 338.235 299.547 336.836 301.031 335.312C302.588 333.715 303.959 331.957 305.531 330.375C307.777 328.116 310.358 325.519 311.875 322.562C312.468 321.885 313.119 321.265 313.688 320.562C315.475 318.355 317.262 316.126 319.219 314.062C320.124 313.491 321.013 312.914 321.844 312.25C323.779 311.126 325.717 309.982 327.469 308.594C327.728 308.577 327.992 308.551 328.25 308.531C329.275 308.454 330.287 308.478 331.312 308.406C335.006 308.148 337.932 306.977 340.312 304C341.568 302.43 342.424 300.586 343.062 298.688C344.737 297.92 346.379 297.086 347.781 295.875C349.519 294.375 350.83 292.29 351.844 290.25C353.844 286.227 354.368 281.959 351.375 278.344C349.899 276.56 347.795 275.169 345.5 274.375C345.534 271.209 344.972 268.03 342.531 265.875C341.271 264.763 339.713 264.221 338.125 264.219C337.836 263.761 337.612 263.287 337.125 262.938C334.119 260.78 330.117 263.626 327.75 265.406C327.314 265.734 326.868 266.071 326.438 266.406C325.619 267.044 324.845 267.657 324.125 268.438C323.662 268.939 323.28 269.513 322.875 270.062C322.272 270.88 321.74 271.785 321.219 272.656C320.539 273.793 319.878 274.93 319.094 276C317.304 278.444 315.233 280.752 313.312 283.094C312.49 284.097 311.696 285.12 310.875 286.125C309.242 287.182 307.597 288.236 306 289.344C301.873 292.207 298.039 295.371 294.75 299.188C290.49 304.132 287.208 309.814 283.688 315.281C281.623 318.488 279.504 321.833 276.781 324.531C276.021 325.284 275.185 325.97 274.344 326.625C274.134 326.437 273.921 326.258 273.719 326.062C274.062 322.386 274.295 318.689 274.531 315C276.733 313.451 278.437 311.2 279.406 308.406C280.761 304.503 280.169 300.432 280.062 296.406C280.033 295.287 280.205 294.18 280.25 293.062C280.288 292.111 280.308 291.171 280.312 290.219C280.33 286.864 280.157 283.51 280.125 280.156C279.923 258.699 279.744 237.239 279.594 215.781C279.585 214.481 279.571 213.176 279.562 211.875C279.704 208.742 279.613 205.604 279.531 202.469C279.489 200.854 279.502 199.24 279.5 197.625C279.496 194.563 279.504 191.499 279.5 188.438C279.499 187.814 279.47 187.186 279.469 186.562C279.469 186.418 279.469 186.27 279.469 186.125C279.469 186.121 279.469 186.013 279.469 185.906C279.469 185.815 279.56 185.625 279.469 185.625C274.913 185.625 270.368 185.625 265.812 185.625C265.779 174.956 265.82 164.294 265.812 153.625C265.801 147.383 260.711 142.332 254.469 142.344ZM257.5 367.625C258.096 370.183 258.899 373.183 257.406 375.594C257.275 375.805 257.059 375.982 256.906 376.188C257.06 375.979 257.337 375.841 257.469 375.625C258.957 373.188 258.116 370.199 257.5 367.625ZM256.906 376.188C256.382 376.901 255.719 377.535 255 378.125C255.731 377.532 256.379 376.897 256.906 376.188ZM255 378.125C254.537 378.5 254.077 378.853 253.562 379.156C254.096 378.841 254.521 378.518 255 378.125ZM253.562 379.156C252.785 379.617 251.984 379.969 251.156 380.219C251.984 379.979 252.788 379.613 253.562 379.156ZM251.156 380.219C250.658 380.363 250.151 380.516 249.656 380.562C248.149 380.703 246.444 380.148 245.844 378.625C245.679 378.207 245.613 377.789 245.625 377.344C245.617 377.799 245.517 378.262 245.688 378.688C246.404 380.471 248.476 380.937 250.188 380.625C250.517 380.565 250.826 380.319 251.156 380.219ZM334.531 263.312C335.205 263.283 335.879 263.425 336.469 263.844C336.637 263.963 336.676 264.171 336.812 264.312C336.227 264.444 335.646 264.646 335.094 264.969C332.156 266.687 330.749 269.786 328.5 272.188C327.435 273.325 326.126 274.302 324.969 275.344C322.083 277.941 319.194 280.429 316.031 282.688C315.574 283.014 315.089 283.308 314.625 283.625C314.97 283.2 315.311 282.769 315.656 282.344C317.155 280.496 318.731 278.709 320.125 276.781C321.122 275.402 321.923 273.885 322.812 272.438C323.483 271.346 324.165 270.231 325.031 269.281C325.913 268.315 327 267.519 328.031 266.719C329.441 265.624 330.904 264.505 332.562 263.812C333.186 263.552 333.858 263.342 334.531 263.312ZM337.531 272.281C337.525 272.325 337.506 272.395 337.5 272.438C337.465 272.7 337.493 272.958 337.469 273.219C337.101 273.23 336.764 273.415 336.406 273.5C336.739 273.052 337.161 272.689 337.531 272.281ZM345.188 278.719C345.247 278.748 345.316 278.751 345.375 278.781C346.054 279.132 346.706 279.558 347.281 280.062C348.056 280.742 348.749 281.578 349.094 282.562C350.108 285.463 347.736 289.41 346.031 291.594C345.919 291.737 345.746 291.805 345.625 291.938C345.874 291.081 346.206 290.25 346.281 289.344C346.459 287.22 346.072 285.033 345.469 283C345.466 282.991 345.471 282.978 345.469 282.969C345.449 281.947 345.19 280.995 344.969 280.031C345.015 279.706 345.111 279.387 345.156 279.062C345.171 278.953 345.173 278.83 345.188 278.719ZM331.188 281.156C330.942 281.567 330.669 281.959 330.438 282.375C330.419 282.407 330.393 282.436 330.375 282.469C329.97 282.78 329.589 283.12 329.188 283.438C327.841 284.503 326.736 285.685 325.531 286.906C324.599 287.852 323.632 288.756 322.656 289.656C322.909 289.22 323.061 288.733 323.344 288.312C325.157 285.618 327.748 283.424 330.406 281.594C330.651 281.425 330.933 281.316 331.188 281.156ZM290 322.125C289.62 322.462 289.253 322.816 288.875 323.156C289.033 322.969 289.187 322.781 289.344 322.594C289.567 322.443 289.779 322.28 290 322.125ZM290 322.938C289.84 323.347 289.644 323.738 289.5 324.156C289.06 324.354 288.581 324.453 288.125 324.625C288.749 324.06 289.369 323.493 290 322.938ZM273.125 341.312C273.289 341.384 273.46 341.432 273.625 341.5C273.044 341.883 272.5 342.327 271.906 342.688C271.794 342.755 271.675 342.808 271.562 342.875C271.571 342.812 271.585 342.75 271.594 342.688C272.114 342.239 272.626 341.786 273.125 341.312ZM272.531 346.094C272.429 346.369 272.301 346.634 272.188 346.906C271.89 347.244 271.551 347.541 271.25 347.875C271.246 347.53 271.251 347.189 271.25 346.844C271.683 346.602 272.103 346.343 272.531 346.094Z" fill="#ffffff" stroke="none"/>
</g>
<text clip-path="url(#TextBounds_10)" fill="#df3f40" font-family="Helvetica-Bold" font-size="325" opacity="0" stroke="none" text-anchor="middle" transform="matrix(1 0 0 1 62.7618 69.0952)" x="0" y="0">
<tspan textLength="353.644" x="190.57" y="309">􀒂</tspan>
</text>
<text clip-path="url(#TextBounds_11)" fill="#df3f40" font-family="Helvetica-Bold" font-size="325" opacity="0" stroke="none" text-anchor="middle" transform="matrix(1 0 0 1 79.1781 61.5)" x="0" y="0">
<tspan textLength="353.644" x="176.822" y="309">􀊼</tspan>
</text>
<text clip-path="url(#TextBounds_12)" fill="#ffffff" font-family="Helvetica-Bold" font-size="325" opacity="0" stroke="none" text-anchor="middle" transform="matrix(1 0 0 1 72.8701 61.5)" x="0" y="0">
<tspan textLength="366.26" x="183.13" y="309">􀉑</tspan>
</text>
<text clip-path="url(#TextBounds_13)" fill="#3390ec" font-family="Helvetica-Bold" font-size="472" opacity="0" stroke="none" text-anchor="middle" transform="matrix(1 0 0 1 -25.4694 -31.53)" x="0" y="0">
<tspan textLength="553.24" x="273.661" y="449">􀇻</tspan>
</text>
<text clip-path="url(#TextBounds_14)" fill="#ffffff" font-family="Helvetica-Bold" font-size="310" opacity="0" stroke="none" text-anchor="middle" transform="matrix(1 0 0 1 48.3621 70.5)" x="0" y="0">
<tspan textLength="415.276" x="207.638" y="295">􀦆</tspan>
</text>
<text clip-path="url(#TextBounds_15)" fill="#ffffff" font-family="Helvetica-Bold" font-size="310" opacity="0" stroke="none" text-anchor="middle" transform="matrix(1 0 0 1 74.3215 70.5)" x="0" y="0">
<tspan textLength="363.357" x="181.678" y="295">􀇻</tspan>
</text>
<text clip-path="url(#TextBounds_16)" fill="#707579" font-family="Helvetica-Bold" font-size="472" opacity="0" stroke="none" text-anchor="middle" transform="matrix(1 0 0 1 -14.9209 -31.26)" x="0" y="0">
<tspan textLength="534.342" x="267.171" y="449">􀓕</tspan>
</text>
<g opacity="1">
<use fill="#707579" stroke="none" xlink:href="#Fill_2"/>
<mask height="1400.17" id="StrokeMask_2" maskUnits="userSpaceOnUse" width="1515.47" x="-502.762" y="-438.626">
<rect fill="#ffffff" height="1400.17" stroke="none" width="1515.47" x="-502.762" y="-438.626"/>
<use fill="#000000" fill-rule="evenodd" stroke="none" xlink:href="#Fill_2"/>
</mask>
<use fill="none" mask="url(#StrokeMask_2)" stroke="#707579" stroke-linecap="butt" stroke-linejoin="round" stroke-width="7.68" xlink:href="#Fill_2"/>
</g>
<text clip-path="url(#TextBounds_18)" fill="#707579" font-family="Helvetica-Bold" font-size="472" opacity="0" stroke="none" text-anchor="middle" transform="matrix(1 0 0 1 4.70656 -31.3)" x="0" y="0">
<tspan textLength="495.047" x="247.523" y="449">􀉺</tspan>
</text>
<text clip-path="url(#TextBounds_19)" fill="#707579" font-family="Helvetica-Bold" font-size="472" opacity="0" stroke="none" text-anchor="middle" transform="matrix(1 0 0 1 -30.7031 -26)" x="0" y="0">
<tspan textLength="573.406" x="286.703" y="449">􀍕</tspan>
</text>
<text clip-path="url(#TextBounds_20)" fill="#707579" font-family="Helvetica-Bold" font-size="472" opacity="0" stroke="none" text-anchor="middle" transform="matrix(1 0 0 1 -31.3518 -44.21)" x="0" y="0">
<tspan textLength="567.184" x="283.592" y="449">􀏼</tspan>
</text>
<g opacity="0">
<use fill="#707579" stroke="none" xlink:href="#Fill_3"/>
<mask height="1383.15" id="StrokeMask_3" maskUnits="userSpaceOnUse" width="1383.38" x="-436.683" y="-433.777">
<rect fill="#ffffff" height="1383.15" stroke="none" width="1383.38" x="-436.683" y="-433.777"/>
<use fill="#000000" fill-rule="evenodd" stroke="none" xlink:href="#Fill_3"/>
</mask>
<use fill="none" mask="url(#StrokeMask_3)" stroke="#707579" stroke-linecap="butt" stroke-linejoin="round" stroke-width="7.68" xlink:href="#Fill_3"/>
</g>
<g opacity="0">
<use fill="#707579" stroke="none" xlink:href="#Fill_4"/>
<mask height="1421.64" id="StrokeMask_4" maskUnits="userSpaceOnUse" width="1465.31" x="-472.391" y="-443.559">
<rect fill="#ffffff" height="1421.64" stroke="none" width="1465.31" x="-472.391" y="-443.559"/>
<use fill="#000000" fill-rule="evenodd" stroke="none" xlink:href="#Fill_4"/>
</mask>
<use fill="none" mask="url(#StrokeMask_4)" stroke="#707579" stroke-linecap="butt" stroke-linejoin="round" stroke-width="7.68" xlink:href="#Fill_4"/>
</g>
<g opacity="0">
<use fill="#707579" stroke="none" xlink:href="#Fill_5"/>
<mask height="1422.1" id="StrokeMask_5" maskUnits="userSpaceOnUse" width="1434.89" x="-457.18" y="-447.592">
<rect fill="#ffffff" height="1422.1" stroke="none" width="1434.89" x="-457.18" y="-447.592"/>
<use fill="#000000" fill-rule="evenodd" stroke="none" xlink:href="#Fill_5"/>
</mask>
<use fill="none" mask="url(#StrokeMask_5)" stroke="#707579" stroke-linecap="butt" stroke-linejoin="round" stroke-width="7.68" xlink:href="#Fill_5"/>
</g>
<g opacity="0">
<use fill="#707579" stroke="none" xlink:href="#Fill_6"/>
<mask height="1337.4" id="StrokeMask_6" maskUnits="userSpaceOnUse" width="1299.61" x="-389.48" y="-407.145">
<rect fill="#ffffff" height="1337.4" stroke="none" width="1299.61" x="-389.48" y="-407.145"/>
<use fill="#000000" fill-rule="evenodd" stroke="none" xlink:href="#Fill_6"/>
</mask>
<use fill="none" mask="url(#StrokeMask_6)" stroke="#707579" stroke-linecap="butt" stroke-linejoin="round" stroke-width="7.68" xlink:href="#Fill_6"/>
</g>
</g>
</svg>
